# Blender v2.92.0 OBJ File: ''
# www.blender.org
mtllib light.mtl
o Icosphere
v 0.000000 -0.237090 0.000000
v 0.131658 0.018519 0.095654
v -0.050287 0.018518 0.154772
v -0.162737 0.018520 -0.000000
v -0.050287 0.018518 -0.154772
v 0.131658 0.018519 -0.095654
v 0.082916 0.314166 0.255195
v -0.217082 0.314166 0.157718
v -0.217082 0.314166 -0.157718
v 0.082916 0.314166 -0.255195
v 0.268328 0.314165 0.000000
v 0.000000 0.480000 0.000000
v -0.048737 -0.178654 0.149999
v 0.127597 -0.178654 0.092703
v 0.047828 -0.005037 0.147196
v 0.154772 -0.005036 -0.000000
v 0.127597 -0.178654 -0.092703
v -0.157719 -0.178653 0.000000
v -0.125213 -0.005036 0.090972
v -0.048737 -0.178654 -0.149999
v -0.125213 -0.005036 -0.090972
v 0.047828 -0.005037 -0.147196
v 0.244225 0.109827 0.079352
v 0.244225 0.109827 -0.079352
v 0.000000 0.109827 0.256793
v 0.150939 0.109827 0.207750
v -0.244225 0.109827 0.079352
v -0.150939 0.109827 0.207750
v -0.150939 0.107524 -0.207750
v -0.244225 0.107524 -0.079352
v 0.150939 0.109827 -0.207750
v 0.000000 0.109827 -0.256793
v 0.206457 0.337721 0.149999
v -0.078861 0.337721 0.242703
v -0.255194 0.337721 0.000000
v -0.078861 0.337721 -0.242703
v 0.206457 0.337721 -0.149999
v 0.048737 0.435196 0.149999
v 0.157719 0.435195 0.000000
v -0.127597 0.435196 0.092703
v -0.127597 0.435196 -0.092703
v 0.048737 0.435196 -0.149999
vt 0.818181 0.000000
vt 0.772726 0.078731
vt 0.863635 0.078731
vt 0.727272 0.157461
vt 0.681818 0.078731
vt 0.636363 0.157461
vt 0.090909 0.000000
vt 0.045454 0.078731
vt 0.136363 0.078731
vt 0.272727 0.000000
vt 0.227273 0.078731
vt 0.318182 0.078731
vt 0.454545 0.000000
vt 0.409090 0.078731
vt 0.500000 0.078731
vt 0.681818 0.236191
vt 0.909090 0.157461
vt 0.818181 0.157461
vt 0.863635 0.236191
vt 0.181818 0.157461
vt 0.090909 0.157461
vt 0.136363 0.236191
vt 0.363636 0.157461
vt 0.272727 0.157461
vt 0.318182 0.236191
vt 0.545454 0.157461
vt 0.454545 0.157461
vt 0.500000 0.236191
vt 0.772726 0.236191
vt 0.954545 0.236191
vt 0.227273 0.236191
vt 0.409090 0.236191
vt 0.590909 0.236191
vt 0.818181 0.314921
vt 0.727272 0.314921
vt 0.772726 0.393651
vt 1.000000 0.314921
vt 0.909091 0.314921
vt 0.954545 0.393651
vt 0.272727 0.314921
vt 0.181818 0.314921
vt 0.227273 0.393651
vt 0.454545 0.314921
vt 0.363636 0.314921
vt 0.409090 0.393651
vt 0.636363 0.314921
vt 0.545454 0.314921
vt 0.590909 0.393651
vt 0.500000 0.393651
vt 0.545454 0.472382
vt 0.318182 0.393651
vt 0.363636 0.472382
vt 0.136363 0.393651
vt 0.181818 0.472382
vt 0.090909 0.314921
vt 0.863635 0.393651
vt 0.909090 0.472382
vt 0.681818 0.393651
vt 0.727272 0.472382
vt 0.045454 0.236191
vt 0.000000 0.157461
vt 0.590909 0.078731
vt 0.636363 0.000000
vn 0.0000 -1.0000 0.0000
vn 0.6808 -0.5401 0.4946
vn -0.2600 -0.5401 0.8004
vn 0.7119 -0.4750 0.5172
vn 0.9230 -0.3847 0.0000
vn -0.8416 -0.5401 0.0000
vn -0.2600 -0.5401 -0.8004
vn 0.6808 -0.5401 -0.4946
vn 0.8790 -0.3650 0.3068
vn -0.2719 -0.4750 0.8369
vn 0.2852 -0.3847 0.8778
vn -0.0202 -0.3650 0.9308
vn -0.8783 -0.4781 0.0031
vn -0.7467 -0.3847 0.5425
vn -0.8912 -0.3643 0.2701
vn -0.2684 -0.4781 -0.8363
vn -0.7450 -0.3897 -0.5413
vn -0.5279 -0.3703 -0.7643
vn 0.7119 -0.4750 -0.5172
vn 0.2852 -0.3847 -0.8778
vn 0.5634 -0.3650 -0.7411
vn 0.5634 -0.3650 0.7411
vn -0.5307 -0.3650 0.7649
vn -0.8900 -0.3703 -0.2658
vn -0.0184 -0.3643 -0.9311
vn 0.8790 -0.3650 -0.3068
vn 0.2939 0.3087 0.9046
vn 0.7370 0.4125 0.5354
vn 0.1625 0.8506 0.5000
vn -0.7695 0.3087 0.5590
vn -0.2815 0.4125 0.8664
vn -0.4253 0.8506 0.3090
vn -0.7694 0.3089 -0.5590
vn -0.9109 0.4125 -0.0000
vn -0.4253 0.8506 -0.3090
vn 0.2939 0.3087 -0.9046
vn -0.2815 0.4125 -0.8663
vn 0.1625 0.8506 -0.5000
vn 0.9511 0.3087 0.0000
vn 0.7370 0.4125 -0.5354
vn 0.5257 0.8506 0.0000
vn 0.0000 1.0000 0.0000
usemtl None
s 1
f 1/1/1 14/2/2 13/3/3
f 2/4/4 14/5/2 16/6/5
f 1/7/1 13/8/3 18/9/6
f 1/10/1 18/11/6 20/12/7
f 1/13/1 20/14/7 17/15/8
f 2/4/4 16/6/5 23/16/9
f 3/17/10 15/18/11 25/19/12
f 4/20/13 19/21/14 27/22/15
f 5/23/16 21/24/17 29/25/18
f 6/26/19 22/27/20 31/28/21
f 2/4/4 23/16/9 26/29/22
f 3/17/10 25/19/12 28/30/23
f 4/20/13 27/22/15 30/31/24
f 5/23/16 29/25/18 32/32/25
f 6/26/19 31/28/21 24/33/26
f 7/34/27 33/35/28 38/36/29
f 8/37/30 34/38/31 40/39/32
f 9/40/33 35/41/34 41/42/35
f 10/43/36 36/44/37 42/45/38
f 11/46/39 37/47/40 39/48/41
f 39/48/41 42/49/38 12/50/42
f 39/48/41 37/47/40 42/49/38
f 37/47/40 10/43/36 42/49/38
f 42/45/38 41/51/35 12/52/42
f 42/45/38 36/44/37 41/51/35
f 36/44/37 9/40/33 41/51/35
f 41/42/35 40/53/32 12/54/42
f 41/42/35 35/41/34 40/53/32
f 35/41/34 8/55/30 40/53/32
f 40/39/32 38/56/29 12/57/42
f 40/39/32 34/38/31 38/56/29
f 34/38/31 7/34/27 38/56/29
f 38/36/29 39/58/41 12/59/42
f 38/36/29 33/35/28 39/58/41
f 33/35/28 11/46/39 39/58/41
f 24/33/26 37/47/40 11/46/39
f 24/33/26 31/28/21 37/47/40
f 31/28/21 10/43/36 37/47/40
f 32/32/25 36/44/37 10/43/36
f 32/32/25 29/25/18 36/44/37
f 29/25/18 9/40/33 36/44/37
f 30/31/24 35/41/34 9/40/33
f 30/31/24 27/22/15 35/41/34
f 27/22/15 8/55/30 35/41/34
f 28/30/23 34/38/31 8/37/30
f 28/30/23 25/19/12 34/38/31
f 25/19/12 7/34/27 34/38/31
f 26/29/22 33/35/28 7/34/27
f 26/29/22 23/16/9 33/35/28
f 23/16/9 11/46/39 33/35/28
f 31/28/21 32/32/25 10/43/36
f 31/28/21 22/27/20 32/32/25
f 22/27/20 5/23/16 32/32/25
f 29/25/18 30/31/24 9/40/33
f 29/25/18 21/24/17 30/31/24
f 21/24/17 4/20/13 30/31/24
f 27/22/15 28/60/23 8/55/30
f 27/22/15 19/21/14 28/60/23
f 19/21/14 3/61/10 28/60/23
f 25/19/12 26/29/22 7/34/27
f 25/19/12 15/18/11 26/29/22
f 15/18/11 2/4/4 26/29/22
f 23/16/9 24/33/26 11/46/39
f 23/16/9 16/6/5 24/33/26
f 16/6/5 6/26/19 24/33/26
f 17/15/8 22/27/20 6/26/19
f 17/15/8 20/14/7 22/27/20
f 20/14/7 5/23/16 22/27/20
f 20/12/7 21/24/17 5/23/16
f 20/12/7 18/11/6 21/24/17
f 18/11/6 4/20/13 21/24/17
f 18/9/6 19/21/14 4/20/13
f 18/9/6 13/8/3 19/21/14
f 13/8/3 3/61/10 19/21/14
f 16/6/5 17/62/8 6/26/19
f 16/6/5 14/5/2 17/62/8
f 14/5/2 1/63/1 17/62/8
f 13/3/3 15/18/11 3/17/10
f 13/3/3 14/2/2 15/18/11
f 14/2/2 2/4/4 15/18/11
o Cylinder
v 0.000000 -0.218193 -0.124000
v 0.000000 -0.028193 -0.124000
v 0.067039 -0.218193 -0.104315
v 0.067039 -0.028193 -0.104315
v 0.112794 -0.218193 -0.051511
v 0.112794 -0.028193 -0.051511
v 0.122738 -0.218193 0.017647
v 0.122738 -0.028193 0.017647
v 0.093713 -0.218193 0.081203
v 0.093713 -0.028193 0.081203
v 0.034935 -0.218193 0.118977
v 0.034935 -0.028193 0.118977
v -0.034935 -0.218193 0.118977
v -0.034935 -0.028193 0.118977
v -0.093713 -0.218193 0.081203
v -0.093713 -0.028193 0.081203
v -0.122738 -0.218193 0.017647
v -0.122738 -0.028193 0.017647
v -0.112794 -0.218193 -0.051511
v -0.112794 -0.028193 -0.051511
v -0.067039 -0.218193 -0.104315
v -0.067039 -0.028193 -0.104315
vt 1.000000 1.000000
vt 0.909091 0.500000
vt 1.000000 0.500000
vt 0.909091 1.000000
vt 0.818182 0.500000
vt 0.818182 1.000000
vt 0.727273 0.500000
vt 0.727273 1.000000
vt 0.636364 0.500000
vt 0.636364 1.000000
vt 0.545454 0.500000
vt 0.545454 1.000000
vt 0.454545 0.500000
vt 0.454545 1.000000
vt 0.363636 0.500000
vt 0.363636 1.000000
vt 0.272727 0.500000
vt 0.272727 1.000000
vt 0.181818 0.500000
vt 0.068620 0.092833
vt 0.317616 0.019722
vt 0.487557 0.215844
vt 0.181818 1.000000
vt 0.090909 0.500000
vt 0.090909 1.000000
vt -0.000000 0.500000
vt 0.879754 0.451901
vt 0.817616 0.019722
vt 0.531688 0.349700
vt 0.468312 0.349700
vt 0.379754 0.451901
vt 0.250000 0.490000
vt 0.120246 0.451901
vt 0.031688 0.349700
vt 0.012443 0.215845
vt 0.182384 0.019722
vt 0.431380 0.092833
vt -0.000000 1.000000
vt 0.620246 0.451901
vt 0.750000 0.490000
vt 0.968312 0.349700
vt 0.987557 0.215844
vt 0.931380 0.092833
vt 0.682384 0.019722
vt 0.568620 0.092833
vt 0.512443 0.215845
vn 0.0000 0.6488 -0.7609
vn 0.4114 -0.6488 -0.6401
vn 0.0000 -0.6488 -0.7609
vn 0.4114 0.6488 -0.6401
vn 0.6921 -0.6488 -0.3161
vn 0.6921 0.6488 -0.3161
vn 0.7532 -0.6488 0.1083
vn 0.7532 0.6488 0.1083
vn 0.5751 -0.6488 0.4983
vn 0.5751 0.6488 0.4983
vn 0.2144 -0.6488 0.7301
vn 0.2144 0.6488 0.7301
vn -0.2144 -0.6488 0.7301
vn -0.2144 0.6488 0.7301
vn -0.5751 -0.6488 0.4983
vn -0.5751 0.6488 0.4983
vn -0.7532 -0.6488 0.1083
vn -0.7532 0.6488 0.1083
vn -0.6921 -0.6488 -0.3161
vn -0.6921 0.6488 -0.3161
vn -0.4114 -0.6488 -0.6401
vn -0.4114 0.6488 -0.6401
usemtl None
s 1
f 44/64/43 45/65/44 43/66/45
f 46/67/46 47/68/47 45/65/44
f 48/69/48 49/70/49 47/68/47
f 50/71/50 51/72/51 49/70/49
f 52/73/52 53/74/53 51/72/51
f 54/75/54 55/76/55 53/74/53
f 56/77/56 57/78/57 55/76/55
f 58/79/58 59/80/59 57/78/57
f 60/81/60 61/82/61 59/80/59
f 58/83/58 54/84/54 50/85/50
f 62/86/62 63/87/63 61/82/61
f 64/88/64 43/89/45 63/87/63
f 45/90/44 53/91/53 61/92/61
f 44/64/43 46/67/46 45/65/44
f 46/67/46 48/69/48 47/68/47
f 48/69/48 50/71/50 49/70/49
f 50/71/50 52/73/52 51/72/51
f 52/73/52 54/75/54 53/74/53
f 54/75/54 56/77/56 55/76/55
f 56/77/56 58/79/58 57/78/57
f 58/79/58 60/81/60 59/80/59
f 60/81/60 62/86/62 61/82/61
f 48/93/48 46/94/46 50/85/50
f 46/94/46 44/95/43 50/85/50
f 44/95/43 64/96/64 62/97/62
f 62/97/62 60/98/60 58/83/58
f 58/83/58 56/99/56 54/84/54
f 54/84/54 52/100/52 50/85/50
f 44/95/43 62/97/62 50/85/50
f 62/97/62 58/83/58 50/85/50
f 62/86/62 64/88/64 63/87/63
f 64/88/64 44/101/43 43/89/45
f 63/102/63 43/103/45 61/92/61
f 43/103/45 45/90/44 61/92/61
f 45/90/44 47/104/47 49/105/49
f 49/105/49 51/106/51 53/91/53
f 53/91/53 55/107/55 61/92/61
f 55/107/55 57/108/57 61/92/61
f 57/108/57 59/109/59 61/92/61
f 45/90/44 49/105/49 53/91/53
