# Blender v2.92.0 OBJ File: ''
# www.blender.org
mtllib pyramid.mtl
o Cone_Cone.001
v -1.322290 -0.800000 -1.322290
v 1.322290 -0.800000 -1.322290
v 1.322290 -0.800000 1.322290
v -1.322290 -0.800000 1.322290
v 0.000000 1.200000 0.000000
vt 0.250000 0.490000
vt 0.250000 0.250000
vt 0.490000 0.250000
vt 0.250000 0.010000
vt 0.990000 0.250000
vt 0.510000 0.250000
vt 0.750000 0.490000
vt 0.010000 0.250000
vt 0.750000 0.010000
vn 0.0000 0.5515 -0.8342
vn 0.8342 0.5515 0.0000
vn 0.0000 -1.0000 0.0000
vn -0.0000 0.5515 0.8342
vn -0.8342 0.5515 0.0000
usemtl None
s off
f 1/1/1 5/2/1 2/3/1
f 2/3/2 5/2/2 3/4/2
f 2/5/3 4/6/3 1/7/3
f 3/4/4 5/2/4 4/8/4
f 4/8/5 5/2/5 1/1/5
f 2/5/3 3/9/3 4/6/3
