# Blender v2.92.0 OBJ File: ''
# www.blender.org
mtllib suzanne_2.mtl
o Suzanne
v 0.554358 0.044939 0.584279
v -0.554358 0.044939 0.584279
v 0.351562 -0.023438 0.617188
v -0.351562 -0.023438 0.617188
v -0.344117 0.115835 0.794743
v 0.344117 0.115835 0.794743
v 0.243085 0.183693 0.809489
v 0.156250 0.054688 0.648438
v -0.156250 0.054688 0.648438
v -0.065673 0.241668 0.664309
v 0.065673 0.241668 0.664309
v 0.294953 0.363987 0.804906
v 0.156250 0.437500 0.648438
v -0.156250 0.437500 0.648438
v 0.351562 0.515625 0.617188
v -0.351562 0.515625 0.617188
v -0.294953 0.363987 0.804906
v -0.432483 0.337392 0.795450
v 0.546875 0.437500 0.578125
v -0.546875 0.437500 0.578125
v 0.633637 0.242150 0.566680
v -0.633637 0.242150 0.566680
v 0.466863 0.195096 0.766162
v -0.243085 0.183693 0.809489
v 0.432483 0.337392 0.795450
v -0.466863 0.195096 0.766162
v 0.000000 -0.187500 0.796875
v 0.000000 0.898438 -0.546875
v 0.000000 0.562500 -0.851562
v 0.000000 -0.382812 -0.351562
v -0.220840 -0.184282 0.531800
v 0.220840 -0.184282 0.531800
v -0.367954 -0.933107 0.527251
v 0.367954 -0.933107 0.527251
v 0.834783 0.423254 0.589328
v -0.834783 0.423254 0.589328
v 0.251790 0.769013 0.746862
v -0.251790 0.769013 0.746862
v 0.000000 0.417278 0.744515
v -0.195379 0.302183 0.758907
v 0.410297 -0.018336 0.679568
v 0.573262 0.366861 0.686494
v -0.299899 0.484315 0.747732
v 0.299899 0.484315 0.747732
v -0.065732 -0.763472 0.733715
v -0.052440 -0.906879 0.690146
v 0.000000 -0.195312 0.750000
v 0.000000 -0.140625 0.742188
v 0.107012 -0.125755 0.792777
v -0.410297 -0.018336 0.679568
v -0.613851 -0.066441 0.564394
v 0.613851 -0.066441 0.564394
v -0.729015 0.388944 0.678526
v 0.729015 0.388944 0.678526
v -0.252177 0.653553 0.851777
v 0.252177 0.653553 0.851777
v -0.000000 0.329070 0.830150
v -0.095263 -0.121000 0.797404
v 0.140049 -0.239847 0.733372
v 0.271873 -0.884280 0.652178
v -0.271873 -0.884280 0.652178
v -0.000000 0.064815 0.732573
v -0.230417 0.129423 0.758004
v -0.127017 -0.226395 0.811881
v 0.030492 -0.160453 0.821747
v 0.127017 -0.226395 0.811881
v -0.006478 -0.337020 0.757628
v -0.143965 -0.238764 0.727635
v 0.067787 -0.863069 0.682401
v 0.099032 -0.731311 0.728924
v -0.093093 -0.793310 0.646567
v 0.195379 0.302183 0.758907
v -0.380894 0.395416 0.768371
v -0.573262 0.366861 0.686494
v -0.542530 0.213160 0.681297
v -0.378552 0.083918 0.724642
v 0.268627 0.398584 0.759764
v 0.230417 0.129423 0.758004
v 0.378552 0.083918 0.724642
v 0.460938 0.117188 0.703125
v -0.460938 0.117188 0.703125
v 0.542530 0.213160 0.681297
v -0.551809 0.287858 0.675569
v 0.551809 0.287858 0.675569
v -0.268627 0.398584 0.759764
v 0.380894 0.395416 0.768371
v -0.000000 0.421263 0.635286
v -0.260620 0.709253 0.606974
v 0.260620 0.709253 0.606974
v -0.462056 0.521838 0.462546
v -0.704473 0.404566 0.307972
v -0.783688 0.113242 0.416992
v 0.783688 0.113242 0.416992
v 0.000000 0.898438 0.289062
v 0.000000 0.984375 -0.078125
v 0.000000 -0.078116 -0.777908
v -0.323265 -0.935812 0.414335
v 0.000000 -0.487724 0.299484
v 0.853487 0.326571 -0.184387
v -0.864099 0.306573 -0.017351
v 0.460938 0.437500 -0.703125
v -0.460938 0.437500 -0.703125
v -0.659901 -0.119392 -0.121426
v 0.659901 -0.119392 -0.121426
v -0.742935 -0.096205 -0.329129
v -0.247368 -0.507892 0.386600
v 0.040558 -0.796824 0.350120
v 0.247368 -0.507892 0.386600
v 0.328407 -0.910050 0.403136
v -0.196827 -0.399766 0.275526
v 0.196827 -0.399766 0.275526
v 0.380830 -0.247215 -0.201982
v 0.416138 -0.056313 -0.564653
v -0.416138 -0.056313 -0.564653
v 0.453125 0.867188 -0.382812
v -0.453125 0.867188 -0.382812
v -0.468039 0.900587 0.151110
v 0.468039 0.900587 0.151110
v 0.462056 0.521838 0.462546
v 0.704473 0.404566 0.307972
v -0.778416 0.571313 0.104450
v 0.778416 0.571313 0.104450
v 0.781262 0.611360 -0.336432
v -0.781262 0.611360 -0.336432
v -0.822768 0.331336 -0.409608
v -0.380830 -0.247215 -0.201982
v -0.934663 0.444572 -0.262430
v -0.812789 -0.105257 -0.123260
v -1.044079 -0.075476 -0.314684
v -1.317000 0.071596 -0.487159
v -1.362991 0.312056 -0.443765
v -1.209045 0.489463 -0.397220
v 0.934663 0.444572 -0.262430
v -0.840483 0.315478 -0.187369
v 1.209045 0.489463 -0.397220
v 1.233696 0.245938 -0.434685
v 1.194671 0.100782 -0.438242
v 1.044079 -0.075476 -0.314684
v 0.812789 -0.105257 -0.123260
v 0.856900 0.001803 -0.300854
v -1.036152 0.006784 -0.405449
v -1.194671 0.100782 -0.438242
v -1.233696 0.245938 -0.434685
v -1.154985 0.352190 -0.458766
v -0.957320 0.302066 -0.322260
v 0.790561 0.101955 -0.306724
v 0.711848 -0.001168 -0.175937
v -0.711848 -0.001168 -0.175937
v 0.957320 0.302066 -0.322260
v -0.790561 0.101955 -0.306724
v 1.154985 0.352190 -0.458766
v 1.036152 0.006784 -0.405449
v -0.856900 0.001803 -0.300854
v 1.068135 0.235192 -0.383879
v -1.068135 0.235192 -0.383879
v -1.226293 0.483535 -0.548223
v 1.226293 0.483535 -0.548223
v 1.362991 0.312056 -0.443765
v 1.317000 0.071596 -0.487159
v 1.039062 -0.085938 -0.492188
v -1.039062 -0.085938 -0.492188
v 0.742935 -0.096205 -0.329129
v 0.822768 0.331336 -0.409608
vt 0.879995 0.591261
vt 0.852992 0.521418
vt 0.920247 0.524364
vt 0.847425 0.888890
vt 0.877502 0.820316
vt 0.914745 0.888933
vt 0.854382 0.604916
vt 0.852521 0.805538
vt 0.791018 0.645443
vt 0.798481 0.569535
vt 0.791018 0.762238
vt 0.795104 0.838402
vt 0.842261 0.702749
vt 0.860023 0.630897
vt 0.896968 0.634616
vt 0.896383 0.777757
vt 0.859309 0.779832
vt 0.844753 0.707263
vt 0.921180 0.713713
vt 0.968213 0.770220
vt 0.903037 0.607186
vt 0.968392 0.645333
vt 0.901228 0.805429
vt 0.965038 0.841671
vt 0.968392 0.573812
vt 0.544059 0.068075
vt 0.513357 0.067295
vt 0.553203 0.060223
vt 0.612025 0.160013
vt 0.493806 0.068033
vt 0.425409 0.160506
vt 0.484677 0.060157
vt 0.620943 0.236505
vt 0.541727 0.193531
vt 0.417262 0.238343
vt 0.499235 0.192754
vt 0.706062 0.312803
vt 0.668063 0.229846
vt 0.718433 0.255948
vt 0.332088 0.319626
vt 0.368874 0.232353
vt 0.354639 0.321116
vt 0.619321 0.396230
vt 0.684315 0.315249
vt 0.424532 0.400637
vt 0.433429 0.380311
vt 0.523345 0.386654
vt 0.609625 0.376566
vt 0.524791 0.348198
vt 0.609647 0.342374
vt 0.578937 0.310216
vt 0.431951 0.345723
vt 0.656337 0.308490
vt 0.647152 0.283844
vt 0.383123 0.313015
vt 0.581787 0.271397
vt 0.519818 0.253993
vt 0.457800 0.272907
vt 0.461852 0.312096
vt 0.525123 0.073097
vt 0.529464 0.085624
vt 0.547499 0.163691
vt 0.512433 0.085525
vt 0.486635 0.165783
vt 0.536230 0.175558
vt 0.501824 0.175619
vt 0.524181 0.184873
vt 0.519841 0.200843
vt 0.519132 0.185382
vt 0.517577 0.190607
vt 0.517851 0.152645
vt 0.514348 0.078211
vt 0.612973 0.261210
vt 0.391701 0.287421
vt 0.425908 0.263345
vt 0.419605 0.326898
vt 0.621092 0.323399
vt 0.599937 0.327295
vt 0.649122 0.297521
vt 0.390135 0.301496
vt 0.629829 0.267263
vt 0.408893 0.269959
vt 0.629080 0.425389
vt 0.521405 0.433788
vt 0.416103 0.430556
vt 0.350292 0.396229
vt 0.692106 0.388274
vt 0.262025 0.315934
vt 0.771517 0.305840
vt 0.391712 0.020395
vt 0.425532 0.076707
vt 0.380225 0.082348
vt 0.480458 0.052466
vt 0.570152 0.009165
vt 0.558303 0.053818
vt 0.612098 0.076998
vt 0.656999 0.083030
vt 0.316954 0.260471
vt 0.857082 0.118753
vt 0.805584 0.010786
vt 0.918961 0.058338
vt 0.173591 0.111895
vt 0.232648 0.003484
vt 0.252960 0.102815
vt 0.646555 0.021152
vt 0.779315 0.162321
vt 0.825641 0.213419
vt 0.252217 0.161470
vt 0.224319 0.237292
vt 0.909112 0.183261
vt 0.994525 0.167705
vt 0.107928 0.179083
vt 0.110477 0.041181
vt 0.872094 0.327733
vt 0.962901 0.344752
vt 0.911671 0.402429
vt 0.915360 0.259804
vt 0.999856 0.254640
vt 0.098965 0.266968
vt 0.043968 0.367038
vt 0.000144 0.259113
vt 0.011829 0.155367
vt 0.861062 0.236078
vt 0.838848 0.201675
vt 0.160829 0.240518
vt 0.174724 0.195301
vt 0.818812 0.278316
vt 0.209152 0.287410
vt 0.149702 0.344631
vt 0.788548 0.367747
vt 0.828202 0.453947
vt 0.246525 0.386436
vt 0.106400 0.432652
vt 0.763104 0.431376
vt 0.279233 0.458048
vt 0.215430 0.477965
vt 0.780967 0.105926
vt 0.196622 0.155241
vt 0.837382 0.156361
vt 0.161836 0.865884
vt 0.137366 0.774518
vt 0.186938 0.782731
vt 0.569431 0.788756
vt 0.574420 0.731649
vt 0.618977 0.782060
vt 0.183672 0.725349
vt 0.213355 0.749243
vt 0.544101 0.754619
vt 0.504912 0.703617
vt 0.444091 0.727422
vt 0.437023 0.671493
vt 0.314328 0.724667
vt 0.254013 0.699262
vt 0.322798 0.668797
vt 0.507547 0.739212
vt 0.250418 0.734825
vt 0.549299 0.820288
vt 0.592008 0.872159
vt 0.470183 0.827348
vt 0.402311 0.849094
vt 0.285496 0.824266
vt 0.206246 0.814974
vt 0.391705 0.693446
vt 0.391039 0.611891
vt 0.367734 0.691872
vt 0.425893 0.752045
vt 0.353108 0.847951
vt 0.331961 0.749836
vt 0.511135 0.796557
vt 0.245233 0.792226
vt 0.487205 0.611647
vt 0.543385 0.683538
vt 0.274087 0.608281
vt 0.216123 0.678120
vt 0.662072 0.735096
vt 0.707492 0.759884
vt 0.742590 0.602243
vt 0.028330 0.592599
vt 0.114925 0.578320
vt 0.095882 0.726043
vt 0.649822 0.581235
vt 0.051216 0.522659
vt 0.369913 0.610196
vt 0.918898 0.699697
vt 0.441214 0.330094
vt 0.470636 0.000144
vt 0.200012 0.217114
vt 0.459997 0.898651
vt 0.293784 0.896194
vt 0.797515 0.179589
vt 0.231852 0.178215
vt 0.049526 0.748824
vt 0.834578 0.206879
vn 0.5825 -0.2186 0.7828
vn 0.6023 -0.4884 0.6313
vn 0.7970 0.0184 0.6037
vn -0.6023 -0.4884 0.6313
vn -0.5825 -0.2186 0.7828
vn -0.7970 0.0184 0.6037
vn 0.1005 -0.5159 0.8507
vn -0.1005 -0.5159 0.8507
vn -0.4436 -0.6000 0.6658
vn 0.1029 -0.7805 0.6166
vn 0.4436 -0.6000 0.6658
vn -0.1029 -0.7805 0.6166
vn -0.6617 0.0110 0.7496
vn -0.3513 -0.2080 0.9128
vn -0.1741 0.4452 0.8783
vn 0.1741 0.4452 0.8783
vn 0.3513 -0.2080 0.9128
vn 0.6617 0.0110 0.7496
vn 0.4622 0.5713 0.6782
vn -0.1335 0.7867 0.6026
vn 0.4295 0.3283 0.8412
vn 0.1335 0.7867 0.6026
vn -0.4295 0.3283 0.8412
vn -0.6344 0.5188 0.5729
vn 0.6344 0.5188 0.5729
vn 0.5012 -0.4285 0.7517
vn 0.0584 -0.6187 0.7834
vn 0.7943 -0.5916 0.1378
vn 0.7735 -0.4853 0.4076
vn -0.5289 -0.3974 0.7499
vn -0.7727 -0.4813 0.4138
vn -0.8029 -0.5772 0.1487
vn 0.3460 -0.4899 0.8002
vn 0.2981 0.1269 0.9460
vn -0.3429 -0.4915 0.8005
vn -0.1885 0.1263 0.9739
vn 0.8987 0.3790 0.2203
vn 0.5439 -0.8079 0.2267
vn 0.9084 -0.3956 0.1352
vn -0.8987 0.3790 0.2203
vn -0.5439 -0.8079 0.2267
vn -0.4687 -0.0160 0.8832
vn -0.1453 0.9689 0.2004
vn 0.4687 -0.0160 0.8832
vn 0.1453 0.9689 0.2004
vn 0.0280 0.3209 0.9467
vn 0.0000 0.8919 0.4521
vn -0.0280 0.3209 0.9467
vn 0.0000 -0.0768 0.9970
vn 0.1780 -0.2380 0.9548
vn 0.2063 -0.1476 0.9673
vn -0.1780 -0.2380 0.9548
vn 0.1880 -0.2204 0.9571
vn 0.5593 -0.1918 0.8065
vn -0.1880 -0.2204 0.9571
vn 0.0552 -0.0180 0.9983
vn 0.0079 0.0233 0.9997
vn -0.0591 -0.0142 0.9981
vn -0.2063 -0.1476 0.9673
vn -0.0031 -0.1761 0.9843
vn 0.1390 -0.1997 0.9699
vn 0.8598 -0.1014 0.5004
vn 0.0798 -0.4198 0.9041
vn -0.8652 -0.0490 0.4990
vn 0.6534 -0.2598 0.7110
vn -0.6634 -0.2188 0.7155
vn -0.1757 0.4462 0.8775
vn -0.1598 0.4637 0.8715
vn -0.3935 0.9174 -0.0580
vn -1.0000 0.0000 0.0000
vn -0.0246 -0.2311 0.9726
vn 0.7161 -0.2401 0.6553
vn 0.2459 -0.3492 0.9042
vn -0.5593 -0.1918 0.8065
vn -0.2459 -0.3492 0.9042
vn -0.2864 0.3924 0.8741
vn 0.2864 0.3924 0.8741
vn 0.0750 -0.0481 -0.9960
vn -0.5716 0.0419 0.8195
vn 0.5716 0.0419 0.8195
vn -0.2497 -0.0079 -0.9683
vn 0.2497 -0.0079 -0.9683
vn -0.1795 0.7787 -0.6011
vn 0.0000 0.9795 0.2014
vn 0.1795 0.7787 -0.6011
vn -0.4043 0.9083 0.1072
vn 0.4043 0.9083 0.1072
vn -0.8328 0.5111 0.2127
vn 0.8558 0.4887 0.1694
vn 0.0120 -0.6652 -0.7465
vn -0.7943 0.0143 -0.6073
vn -0.6496 -0.7290 -0.2155
vn -0.5300 -0.6204 -0.5780
vn 0.0490 -0.2286 -0.9723
vn 0.5786 -0.4883 -0.6532
vn 0.7844 -0.0037 -0.6203
vn 0.6496 -0.7290 -0.2155
vn -0.9028 -0.4030 0.1502
vn 0.4437 -0.5646 -0.6959
vn 0.0000 -0.9308 -0.3653
vn 0.0000 -0.5122 -0.8589
vn -0.4437 -0.5646 -0.6959
vn -0.4313 -0.8877 -0.1609
vn 0.4885 -0.8253 0.2832
vn 0.9428 -0.0236 0.3323
vn -0.4841 -0.8289 0.2804
vn -0.9971 -0.0529 0.0542
vn 0.4847 0.1527 -0.8612
vn 0.0000 0.3383 -0.9410
vn -0.4847 0.1527 -0.8612
vn 0.4341 0.8297 0.3508
vn 0.0000 1.0000 0.0029
vn 0.0000 0.8129 0.5824
vn 0.4145 0.8167 -0.4014
vn 0.0000 0.8342 -0.5514
vn -0.4145 0.8167 -0.4014
vn 0.8021 0.5004 -0.3259
vn 0.2530 0.2970 -0.9207
vn -0.8045 0.4957 -0.3271
vn -0.2558 0.3084 -0.9162
vn 0.8687 0.3766 0.3217
vn -0.8386 0.4378 0.3241
vn -0.4341 0.8297 0.3508
vn 0.4313 -0.8877 -0.1609
vn -0.1742 -0.8385 -0.5162
vn 0.1742 -0.8385 -0.5162
vn -0.3671 0.7001 0.6124
vn -0.9626 0.0379 0.2684
vn -0.1659 -0.0646 0.9840
vn 0.1659 -0.0646 0.9840
vn 0.8786 -0.4528 -0.1520
vn 0.9626 0.0379 0.2684
vn -0.8786 -0.4528 -0.1520
vn -0.3177 0.0668 0.9458
vn 0.3177 0.0668 0.9458
vn 0.5035 -0.4061 0.7625
vn 0.4230 0.4885 0.7631
vn 0.4503 -0.3628 0.8158
vn -0.4230 0.4885 0.7631
vn -0.5035 -0.4061 0.7625
vn -0.4503 -0.3628 0.8158
vn 0.1957 0.3904 0.8996
vn -0.1957 0.3904 0.8996
vn 0.1448 -0.1621 0.9761
vn 0.3689 0.7005 0.6108
vn 0.5603 -0.4037 0.7232
vn -0.5542 -0.3970 0.7316
vn -0.1448 -0.1621 0.9761
vn 0.8686 0.0573 0.4922
vn -0.8868 0.0517 0.4593
vn 0.6762 -0.0665 0.7337
vn -0.9737 -0.0840 0.2116
vn -0.6693 -0.0567 0.7408
vn 0.3943 0.0157 0.9189
vn -0.3943 0.0157 0.9189
vn 0.0215 -0.7344 -0.6783
vn -0.0215 -0.7344 -0.6783
vn 0.2445 0.6741 -0.6969
vn -0.2114 0.8527 0.4776
vn 0.1898 0.8346 0.5171
vn -0.2445 0.6741 -0.6969
vn -0.4622 0.5713 0.6782
vn -0.0750 -0.0481 -0.9960
usemtl None
s 1
f 23/1/1 1/2/2 21/3/3
f 2/4/4 26/5/5 22/6/6
f 23/1/1 6/7/7 1/2/2
f 5/8/8 26/5/5 2/4/4
f 6/7/7 8/9/9 3/10/10
f 9/11/11 5/8/8 4/12/12
f 11/13/13 8/9/9 7/14/14
f 7/14/14 12/15/15 11/13/13
f 17/16/16 24/17/17 10/18/18
f 17/16/16 10/18/18 14/19/19
f 17/16/16 14/19/19 16/20/20
f 25/21/21 15/22/22 12/15/15
f 18/23/23 16/20/20 20/24/24
f 21/3/3 19/25/25 25/21/21
f 26/5/5 18/23/23 22/6/6
f 6/7/7 23/1/1 25/21/21
f 18/23/23 26/5/5 5/8/8
f 25/21/21 7/14/14 6/7/7
f 5/8/8 24/17/17 18/23/23
f 25/21/21 12/15/15 7/14/14
f 24/17/17 17/16/16 18/23/23
f 60/26/26 46/27/27 34/28/28
f 32/29/29 60/26/26 34/28/28
f 61/30/30 31/31/31 33/32/32
f 32/29/29 41/33/33 49/34/34
f 50/35/35 31/31/31 58/36/36
f 35/37/37 52/38/38 93/39/39
f 36/40/40 51/41/41 53/42/42
f 37/43/43 54/44/44 35/37/37
f 38/45/45 53/42/42 55/46/46
f 39/47/47 56/48/48 37/43/43
f 39/47/47 55/46/46 57/49/49
f 44/50/50 57/49/49 72/51/51
f 43/52/52 57/49/49 55/46/46
f 54/44/44 44/50/50 42/53/53
f 53/42/42 43/52/52 55/46/46
f 52/38/38 42/53/53 82/54/54
f 51/41/41 74/55/55 53/42/42
f 52/38/38 82/54/54 41/33/33
f 49/34/34 41/33/33 78/56/56
f 78/56/56 62/57/57 49/34/34
f 62/57/57 63/58/58 58/36/36
f 72/51/51 62/57/57 78/56/56
f 62/57/57 40/59/59 63/58/58
f 69/60/60 46/27/27 60/26/26
f 69/60/60 60/26/26 70/61/61
f 59/62/62 70/61/61 60/26/26
f 45/63/63 68/64/64 61/30/30
f 49/34/34 66/65/65 59/62/62
f 64/66/66 58/36/36 68/64/64
f 65/67/67 49/34/34 48/68/68
f 27/69/69 48/68/68 47/70/70
f 27/69/69 48/68/68 58/36/36
f 68/64/64 67/71/71 64/66/66
f 48/68/68 49/34/34 62/57/57
f 58/36/36 48/68/68 62/57/57
f 46/27/27 69/60/60 71/72/72
f 71/72/72 69/60/60 70/61/61
f 41/33/33 82/54/54 79/73/73
f 75/74/74 50/35/35 76/75/75
f 43/52/52 74/55/55 73/76/76
f 44/50/50 72/51/51 86/77/77
f 40/59/59 43/52/52 73/76/76
f 72/51/51 77/78/78 86/77/77
f 86/77/77 84/79/79 42/53/53
f 74/55/55 75/74/74 83/80/80
f 79/73/73 82/54/54 80/81/81
f 75/74/74 76/75/75 81/82/82
f 39/47/47 89/83/83 87/84/84
f 88/85/85 39/47/47 87/84/84
f 38/45/45 88/85/85 90/86/86
f 35/37/37 119/87/87 37/43/43
f 36/40/40 90/86/86 91/88/88
f 93/39/39 120/89/89 35/37/37
f 98/90/90 106/91/91 110/92/92
f 98/90/90 97/93/93 106/91/91
f 107/94/94 109/95/95 97/93/93
f 34/28/28 97/93/93 109/95/95
f 34/28/28 109/95/95 108/96/96
f 97/93/93 33/32/32 106/91/91
f 32/29/29 108/96/96 111/97/97
f 106/91/91 31/31/31 110/92/92
f 31/31/31 51/41/41 92/98/98
f 113/99/99 30/100/100 96/101/101
f 114/102/102 30/103/100 126/104/103
f 30/100/100 111/97/97 98/105/90
f 110/92/92 30/103/100 98/90/90
f 93/39/39 104/106/104 99/107/105
f 103/108/106 92/98/98 100/109/107
f 101/110/108 96/101/101 29/111/109
f 102/112/110 96/113/101 114/102/102
f 118/114/111 95/115/112 94/116/113
f 95/115/112 115/117/114 28/118/115
f 116/119/116 95/120/112 28/121/115
f 28/118/115 101/110/108 29/111/109
f 102/112/110 28/121/115 29/122/109
f 101/110/108 123/123/117 163/124/118
f 124/125/119 102/112/110 125/126/120
f 118/114/111 122/127/121 123/123/117
f 121/128/122 117/129/123 124/125/119
f 118/114/111 120/89/89 122/127/121
f 91/88/88 117/129/123 121/128/122
f 119/130/87 94/116/113 87/131/84
f 90/132/86 94/133/113 117/129/123
f 87/131/84 89/134/83 119/130/87
f 88/135/85 87/136/84 90/132/86
f 92/98/98 91/88/88 100/109/107
f 99/107/105 122/127/121 120/89/89
f 121/128/122 100/109/107 91/88/88
f 99/107/105 123/123/117 122/127/121
f 124/125/119 100/109/107 121/128/122
f 123/123/117 99/107/105 163/124/118
f 93/39/39 112/137/124 104/106/104
f 126/104/103 92/98/98 103/108/106
f 93/39/39 111/97/97 112/137/124
f 110/92/92 92/98/98 126/104/103
f 105/138/125 125/126/120 114/102/102
f 163/124/118 113/99/99 101/110/108
f 112/137/124 162/139/126 104/106/104
f 126/104/103 105/138/125 114/102/102
f 132/140/127 131/141/128 143/142/129
f 136/143/130 159/144/131 158/145/132
f 143/142/129 130/146/133 142/147/134
f 137/148/135 138/149/136 159/144/131
f 138/149/136 140/150/137 139/151/138
f 153/152/139 129/153/140 128/154/141
f 137/148/135 152/155/142 138/149/136
f 141/156/143 142/147/134 129/153/140
f 151/157/144 136/143/130 135/158/145
f 149/159/146 135/158/145 99/160/105
f 145/161/147 132/140/127 144/162/148
f 139/151/138 147/163/149 104/164/104
f 139/151/138 140/150/137 147/163/149
f 153/152/139 128/154/141 148/165/150
f 99/160/105 146/166/151 149/159/146
f 134/167/152 150/168/153 148/165/150
f 146/166/151 154/169/154 149/159/146
f 150/168/153 155/170/155 153/152/139
f 154/169/154 152/155/142 137/148/135
f 154/169/154 137/148/135 136/143/130
f 151/157/144 154/169/154 136/143/130
f 155/170/155 144/162/148 143/142/129
f 138/149/136 162/171/126 160/172/156
f 105/173/125 129/153/140 161/174/157
f 158/145/132 157/175/158 135/176/145
f 135/176/145 157/175/158 133/177/159
f 127/178/160 125/179/120 156/180/161
f 160/172/156 163/181/118 157/175/158
f 161/174/157 125/179/120 105/173/125
f 157/175/158 159/144/131 160/172/156
f 130/146/133 156/180/161 161/174/157
f 157/175/158 158/145/132 159/144/131
f 130/146/133 131/141/128 156/180/161
f 134/182/152 125/179/120 127/178/160
f 104/164/104 162/171/126 139/151/138
f 105/173/125 103/183/106 128/154/141
f 1/2/2 6/7/7 3/10/10
f 4/12/12 5/8/8 2/4/4
f 6/7/7 7/14/14 8/9/9
f 9/11/11 24/17/17 5/8/8
f 10/18/18 24/17/17 9/11/11
f 12/15/15 13/184/162 11/13/13
f 12/15/15 15/22/22 13/184/162
f 25/21/21 19/25/25 15/22/22
f 18/23/23 17/16/16 16/20/20
f 22/6/6 18/23/23 20/24/24
f 23/1/1 21/3/3 25/21/21
f 61/30/30 33/32/32 46/27/27
f 32/29/29 59/62/62 60/26/26
f 61/30/30 68/64/64 31/31/31
f 32/29/29 52/38/38 41/33/33
f 50/35/35 51/41/41 31/31/31
f 35/37/37 54/44/44 52/38/38
f 36/40/40 92/98/98 51/41/41
f 37/43/43 56/48/48 54/44/44
f 38/45/45 36/40/40 53/42/42
f 39/47/47 57/49/49 56/48/48
f 39/47/47 38/45/45 55/46/46
f 44/50/50 56/48/48 57/49/49
f 43/52/52 40/59/59 57/49/49
f 54/44/44 56/48/48 44/50/50
f 53/42/42 74/55/55 43/52/52
f 52/38/38 54/44/44 42/53/53
f 51/41/41 75/74/74 74/55/55
f 51/41/41 50/35/35 75/74/74
f 58/36/36 63/58/58 50/35/35
f 72/51/51 57/49/49 62/57/57
f 62/57/57 57/49/49 40/59/59
f 46/27/27 45/63/63 61/30/30
f 45/63/63 67/71/71 68/64/64
f 59/62/62 67/71/71 70/61/61
f 67/71/71 45/63/63 70/61/61
f 27/69/69 65/67/67 48/68/68
f 59/62/62 66/65/65 67/71/71
f 58/36/36 65/67/67 27/69/69
f 66/65/65 49/34/34 65/67/67
f 64/66/66 65/67/67 58/36/36
f 65/67/67 67/71/71 66/65/65
f 64/66/66 67/71/71 65/67/67
f 32/29/29 49/34/34 59/62/62
f 68/64/64 58/36/36 31/31/31
f 71/72/72 45/63/63 46/27/27
f 45/63/63 71/72/72 70/61/61
f 78/56/56 41/33/33 79/73/73
f 76/75/75 50/35/35 63/58/58
f 44/50/50 86/77/77 42/53/53
f 40/59/59 73/76/76 85/185/163
f 73/76/76 74/55/55 83/80/80
f 42/53/53 84/79/79 82/54/54
f 39/47/47 37/43/43 89/83/83
f 88/85/85 38/45/45 39/47/47
f 37/43/43 119/87/87 89/83/83
f 35/37/37 120/89/89 119/87/87
f 36/40/40 38/45/45 90/86/86
f 92/98/98 36/40/40 91/88/88
f 98/105/90 111/97/97 108/96/96
f 98/105/90 108/96/96 107/94/94
f 98/90/90 107/186/94 97/93/93
f 34/28/28 46/27/27 97/93/93
f 97/93/93 46/27/27 33/32/32
f 109/95/95 107/94/94 108/96/96
f 32/29/29 34/28/28 108/96/96
f 106/91/91 33/32/32 31/31/31
f 32/29/29 93/39/39 52/38/38
f 113/99/99 112/137/124 30/100/100
f 114/102/102 96/113/101 30/103/100
f 30/100/100 112/137/124 111/97/97
f 110/92/92 126/104/103 30/103/100
f 101/110/108 113/99/99 96/101/101
f 102/112/110 29/122/109 96/113/101
f 117/129/123 94/133/113 95/120/112
f 95/115/112 118/114/111 115/117/114
f 116/119/116 117/129/123 95/120/112
f 28/118/115 115/117/114 101/110/108
f 102/112/110 116/119/116 28/121/115
f 101/110/108 115/117/114 123/123/117
f 124/125/119 116/119/116 102/112/110
f 115/117/114 118/114/111 123/123/117
f 124/125/119 117/129/123 116/119/116
f 118/114/111 119/130/87 120/89/89
f 91/88/88 90/132/86 117/129/123
f 119/130/87 118/114/111 94/116/113
f 90/132/86 87/136/84 94/133/113
f 93/39/39 99/107/105 120/89/89
f 124/125/119 134/187/152 100/109/107
f 124/125/119 125/126/120 134/187/152
f 93/39/39 32/29/29 111/97/97
f 110/92/92 31/31/31 92/98/98
f 162/139/126 113/99/99 163/124/118
f 125/126/120 102/112/110 114/102/102
f 112/137/124 113/99/99 162/139/126
f 126/104/103 103/108/106 105/138/125
f 133/188/159 99/160/105 135/158/145
f 132/140/127 134/167/152 127/189/160
f 135/158/145 136/143/130 158/145/132
f 136/143/130 137/148/135 159/144/131
f 143/142/129 131/141/128 130/146/133
f 142/147/134 130/146/133 129/153/140
f 138/149/136 152/155/142 140/150/137
f 153/152/139 141/156/143 129/153/140
f 144/162/148 132/140/127 143/142/129
f 149/159/146 151/157/144 135/158/145
f 145/161/147 134/167/152 132/140/127
f 128/154/141 103/183/106 148/165/150
f 99/107/105 104/106/104 147/190/149
f 148/191/150 103/108/106 100/109/107
f 146/166/151 147/163/149 140/150/137
f 153/152/139 148/165/150 150/168/153
f 99/160/105 147/163/149 146/166/151
f 134/167/152 145/161/147 150/168/153
f 148/191/150 100/109/107 134/187/152
f 151/157/144 149/159/146 154/169/154
f 155/170/155 145/161/147 144/162/148
f 146/166/151 140/150/137 154/169/154
f 150/168/153 145/161/147 155/170/155
f 152/155/142 154/169/154 140/150/137
f 153/152/139 155/170/155 141/156/143
f 155/170/155 142/147/134 141/156/143
f 155/170/155 143/142/129 142/147/134
f 138/149/136 139/151/138 162/171/126
f 105/173/125 128/154/141 129/153/140
f 159/144/131 138/149/136 160/172/156
f 161/174/157 129/153/140 130/146/133
f 131/141/128 132/192/127 156/180/161
f 132/192/127 127/178/160 156/180/161
f 133/177/159 157/175/158 163/181/118
f 160/172/156 162/171/126 163/181/118
f 161/174/157 156/180/161 125/179/120
f 99/107/105 133/193/159 163/124/118
