# Blender v2.92.0 OBJ File: ''
# www.blender.org
mtllib wall1.mtl
o Plane001_Mesh
v -0.041891 0.014733 2.857211
v -0.041892 2.014733 2.857211
v -0.041892 2.014732 0.857211
v -0.041892 2.014732 2.053622
v -0.041891 0.014733 0.857211
vt 0.000500 0.000500
vt 0.598123 0.999500
vt 0.000500 0.999500
vt 0.999500 0.999500
vt 0.999500 0.000500
vn -1.0000 -0.0000 0.0000
usemtl Floor_02___Default
s 1
f 5/1/1 4/2/1 3/3/1
f 5/1/1 2/4/1 4/2/1
f 5/1/1 1/5/1 2/4/1
o Plane002_Mesh.001
v -0.041891 0.014732 -1.142789
v -0.041891 0.014733 0.857211
v -0.041892 2.014732 0.857211
v -0.041891 0.574791 -1.142789
v -0.041892 2.014732 -1.142789
vt 0.000500 0.000500
vt 0.999500 0.000500
vt 0.000500 0.280281
vt 0.000500 0.999500
vt 0.999500 0.999500
vn -1.0000 -0.0000 0.0000
usemtl Floor_02___Default
s 1
f 6/6/2 7/7/2 9/8/2
f 9/8/2 7/7/2 10/9/2
f 7/7/2 8/10/2 10/9/2
o Plane003_Mesh.002
v -0.041891 0.014732 -3.142789
v -0.041891 0.014732 -1.142789
v -0.041892 2.014732 -1.142789
v -0.041892 1.159969 -3.142789
v -0.041892 2.014732 -3.142789
vt 0.000500 0.000500
vt 0.999500 0.999500
vt 0.000500 0.572556
vt 0.999500 0.000500
vt 0.000500 0.999500
vn -1.0000 -0.0000 0.0000
usemtl Floor_02___Default
s 1
f 11/11/3 13/12/3 14/13/3
f 13/12/3 11/11/3 12/14/3
f 14/13/3 13/12/3 15/15/3
